<svg width="190" height="190" viewBox="0 0 190 190" fill="none" xmlns="http://www.w3.org/2000/svg">
<g filter="url(#filter0_d_303_382)">
<circle cx="95" cy="95" r="75" fill="#119EEE"/>
</g>
<path d="M50.95 103H48.25V86.25H50.95V93.35H60.8V86.25H63.475V103H60.8V95.775H50.95V103ZM68.699 89.125H65.999V86.25H68.699V89.125ZM68.699 103H65.999V90.575H68.699V103ZM73.8992 103H71.1992V90.575H73.6742V93.925H73.8492C74.2242 91.925 75.5742 90.325 78.1242 90.325C80.9492 90.325 82.1742 92.35 82.1742 94.7V96.325H79.4992V95.225C79.4992 93.45 78.7492 92.625 76.8992 92.625C74.7742 92.625 73.8992 93.8 73.8992 96.025V103ZM90.1201 103.25C86.0451 103.25 83.3701 100.95 83.3701 96.8C83.3701 92.925 86.0201 90.325 90.0701 90.325C93.9201 90.325 96.5451 92.45 96.5451 96.225C96.5451 96.675 96.5201 97.025 96.4451 97.4H85.8951C85.9951 99.8 87.1701 101.075 90.0451 101.075C92.6451 101.075 93.7201 100.225 93.7201 98.75V98.55H96.4201V98.775C96.4201 101.425 93.8201 103.25 90.1201 103.25ZM90.0201 92.45C87.2701 92.45 86.0701 93.675 85.9201 95.9H93.9951V95.85C93.9951 93.55 92.6701 92.45 90.0201 92.45ZM110.59 103.25C105.59 103.25 102.74 100.6 102.74 96.05V86.25H105.415V95.875C105.415 99.25 106.915 100.65 110.59 100.65C114.265 100.65 115.765 99.25 115.765 95.875V86.25H118.465V96.05C118.465 100.6 115.615 103.25 110.59 103.25ZM126.732 103.25C122.732 103.25 120.457 101.675 120.457 98.8V98.725H123.157V98.925C123.157 100.55 124.132 101.075 126.732 101.075C129.157 101.075 129.882 100.575 129.882 99.475C129.882 98.45 129.282 98.125 127.507 97.875L124.107 97.425C121.757 97.125 120.332 96.125 120.332 94.05C120.332 91.875 122.307 90.325 126.132 90.325C129.932 90.325 132.232 91.85 132.232 94.8V94.875H129.557V94.725C129.557 93.25 128.807 92.475 126.057 92.475C123.782 92.475 122.982 92.975 122.982 94.15C122.982 95.125 123.482 95.475 125.357 95.725L128.232 96.125C131.182 96.5 132.532 97.5 132.532 99.55C132.532 101.875 130.232 103.25 126.732 103.25ZM137.43 97.5H134.805C134.805 95.075 134.405 89.925 134.405 88V86.25H137.83V88C137.83 89.925 137.43 95.1 137.43 97.5ZM137.63 103H134.58V99.3H137.63V103Z" fill="white"/>
<defs>
<filter id="filter0_d_303_382" x="0" y="0" width="190" height="190" filterUnits="userSpaceOnUse" color-interpolation-filters="sRGB">
<feFlood flood-opacity="0" result="BackgroundImageFix"/>
<feColorMatrix in="SourceAlpha" type="matrix" values="0 0 0 0 0 0 0 0 0 0 0 0 0 0 0 0 0 0 127 0" result="hardAlpha"/>
<feOffset/>
<feGaussianBlur stdDeviation="10"/>
<feComposite in2="hardAlpha" operator="out"/>
<feColorMatrix type="matrix" values="0 0 0 0 0.0666667 0 0 0 0 0.619608 0 0 0 0 0.933333 0 0 0 1 0"/>
<feBlend mode="normal" in2="BackgroundImageFix" result="effect1_dropShadow_303_382"/>
<feBlend mode="normal" in="SourceGraphic" in2="effect1_dropShadow_303_382" result="shape"/>
</filter>
</defs>
</svg>
