<svg width="412" height="165" viewBox="0 0 412 165" fill="none" xmlns="http://www.w3.org/2000/svg">
<path d="M407.16 28.6748C403.231 39.3799 398.311 49.7033 392.463 59.5137C383.757 74.279 372.838 87.6535 360.079 99.1813C352.611 105.985 343.904 111.322 334.421 114.909C324.201 118.421 313.175 118.948 302.66 116.428C291.611 113.767 281.318 108.655 272.56 101.481C263.682 94.0542 256.071 85.2638 250.016 75.4465C243.902 65.2421 238.358 54.7139 233.408 43.9094C228.07 31.8895 220.05 21.2203 209.951 12.701C198.527 4.20177 184.553 -0.265708 170.26 0.0122268C163.541 -0.0258472 156.84 0.704456 150.29 2.1886C144.065 3.51212 137.956 5.3247 132.022 7.60905C121.054 11.8858 110.62 17.3972 100.926 24.0346C92.4202 29.9791 84.295 36.4385 76.5963 43.3757C55.2433 62.6318 37.8598 85.7933 25.405 111.583C21.3965 119.965 18.0512 128.641 15.3992 137.535C14.7764 133.88 14.1952 130.349 13.614 126.981C12.0778 118.769 10.5417 111.131 9.08855 104.848C6.1408 92.3236 3.4422 84.6447 1.73997 84.8501C0.037749 85.0554 -0.377539 93.0628 0.328261 105.916C0.660402 112.322 1.32474 119.919 2.19661 128.337C2.69482 132.443 3.19301 136.96 3.73274 141.559C4.02336 143.818 4.31399 146.158 4.64613 148.499L5.14432 152.072L5.39342 153.96C5.56729 155.03 5.81711 156.087 6.14083 157.122C6.81353 159.39 8.17624 161.397 10.0435 162.871C11.9602 164.286 14.2948 165.036 16.6862 165.007C19.1253 164.935 21.4967 164.196 23.5367 162.871C24.4572 162.306 25.3443 161.689 26.1938 161.023L27.5638 159.956C31.3004 156.999 34.9956 154.248 38.5661 151.743C45.6656 146.569 52.3085 142.011 57.7888 138.069C68.8325 130.267 75.4338 124.887 74.3959 123.573C73.3579 122.259 65.2619 125.175 52.8066 131.375C46.6205 134.496 39.3549 138.438 31.5911 143.366C29.1 144.885 26.6089 146.61 24.0764 148.335C28.2082 137.654 32.9063 127.195 38.1509 117.003C50.6732 93.134 67.2919 71.5976 87.2662 53.3541C94.5046 46.8754 102.115 40.8152 110.06 35.2039C118.686 29.1627 127.993 24.1329 137.793 20.2156C142.931 18.187 148.22 16.5534 153.612 15.3291C159.058 14.0764 164.627 13.4154 170.219 13.358C181.177 12.9579 191.953 16.2118 200.817 22.5973C209.5 29.8412 216.449 38.9017 221.161 49.1246C226.453 60.2062 232.4 70.9699 238.972 81.3597C245.933 92.1047 254.612 101.66 264.671 109.653C275.03 117.743 287.134 123.364 300.044 126.078C312.697 128.78 325.872 127.766 337.95 123.163C348.431 118.904 357.966 112.653 366.016 104.766C378.842 92.3134 389.527 77.8746 397.652 62.0186C403.095 51.7053 407.276 40.7875 410.108 29.4961C411.976 21.5708 412.266 17.1769 411.81 17.1769C411.353 17.1769 409.9 21.2833 407.118 28.8801" fill="#CECECE"/>
</svg>
