<svg width="468" height="235" viewBox="0 0 468 235" fill="none" xmlns="http://www.w3.org/2000/svg">
<path d="M248.719 135.583C254.218 126.724 258.308 117.065 260.842 106.95C263.213 96.8521 264.167 86.4732 263.678 76.112C263.371 65.9805 261.844 55.9229 259.13 46.1568C256.464 36.3834 252.099 27.1552 246.234 18.8943C243.26 14.7418 239.701 11.0413 235.667 7.90791C231.519 4.59773 226.692 2.24149 221.53 1.0065C215.753 -0.308067 209.702 0.348227 204.342 2.8708C198.924 5.59367 194.39 9.79625 191.263 14.9914C189.751 17.3822 188.436 19.8929 187.333 22.4982C186.357 25.0218 185.513 27.5948 184.806 30.2066C184.12 32.7171 183.598 35.2696 183.244 37.8479L182.569 41.8195L182.233 45.5916C181.55 55.2088 181.804 64.8696 182.99 74.4377C184.023 83.8294 186.381 93.0275 189.994 101.758C193.428 110.035 198.045 117.771 203.7 124.723L205.707 127.258L207.928 129.585C209.372 131.122 210.874 132.724 212.312 134.173C215.292 137.049 218.418 139.769 221.679 142.321C223.576 143.791 225.555 145.167 227.534 146.543C226.01 148.163 224.504 149.534 222.825 151.218C216.401 157.167 209.205 162.226 201.432 166.257C193.941 170.021 185.92 172.621 177.645 173.966C161.762 176.051 145.613 174.508 130.411 169.454C116.17 164.708 102.66 158.001 90.2704 149.525C78.8982 141.802 68.1687 133.172 58.1866 123.72C49.347 115.529 41.064 106.756 33.3927 97.4612C22.0752 83.8926 13.0544 68.5633 6.6881 52.0811C2.33847 40.1518 1.30137 32.8321 0.640214 33.1949C0.430668 34.9628 0.51952 36.7533 0.903032 38.4917C1.59312 43.4612 2.66417 48.3704 4.10669 53.1758C9.60186 70.4028 18.1181 86.5147 29.2573 100.758C36.754 110.553 44.9196 119.818 53.6957 128.485C63.6558 138.487 74.4178 147.657 85.874 155.903C98.6147 165.101 112.594 172.448 127.396 177.725C143.721 183.575 161.176 185.583 178.403 183.593C187.709 182.275 196.755 179.526 205.221 175.445C214.013 171.084 222.162 165.531 229.435 158.942C231.972 156.707 234.38 154.33 236.648 151.823C244.671 156.428 253.093 160.301 261.811 163.395C285.076 171.431 309.399 175.99 333.995 176.925C351.814 177.727 369.668 177.091 387.384 175.025C407.031 172.886 426.39 168.636 445.127 162.349L450.888 160.154L447.194 164.74C443.355 169.776 439.925 174.855 436.708 179.725C431.139 188.419 426.241 197.527 422.059 206.967C414.911 223.128 412.752 233.838 414.087 234.308C415.423 234.779 420.285 225.236 428.775 210.654C433.125 203.364 438.354 194.781 444.799 185.727C448.019 181.156 451.495 176.479 455.234 171.784C457.147 169.433 459.076 167.046 461.076 164.69C462.084 163.493 463.053 162.493 464.42 160.638C466.27 158.257 467.291 155.337 467.327 152.322C467.308 150.708 466.957 149.115 466.297 147.642C465.762 146.496 465.078 145.425 464.263 144.457C463.023 143.06 461.637 141.799 460.129 140.697C457.785 138.871 455.41 137.118 453.123 135.359C448.482 131.897 443.978 128.62 439.66 125.506C430.965 119.423 423.044 114.342 416.06 110.076C402.465 101.87 393.27 97.7046 392.413 99.049C391.556 100.393 399.077 107.051 411.531 117.079L433.523 134.434C437.668 137.689 441.989 141.102 446.485 144.673C448.72 146.453 451.029 148.264 453.337 150.075C453.402 150.12 453.476 150.151 453.554 150.165C451.172 150.577 447.823 151.268 443.083 152.442C424.588 156.837 405.825 160.011 386.914 161.945C369.812 163.515 352.62 163.852 335.47 162.954C312.102 161.886 289.007 157.477 266.889 149.86C259.609 147.244 252.544 144.063 245.759 140.347C246.83 138.795 247.901 137.242 248.9 135.659L248.719 135.583ZM230.17 130.291C227.248 128.071 224.446 125.699 221.773 123.184C220.471 121.919 219.214 120.546 217.906 119.194L215.987 117.163L214.231 114.944C209.303 109.025 205.294 102.398 202.339 95.2851C199.169 87.7715 197.083 79.8457 196.143 71.7453C194.981 63.1651 194.673 54.4909 195.222 45.8498L195.471 42.5942L195.937 39.429C196.231 37.3384 196.639 35.2654 197.16 33.2193C197.596 31.1474 198.341 29.4588 199.02 27.3172C199.762 25.5178 200.654 23.7838 201.686 22.1335C203.19 19.1288 205.645 16.7056 208.669 15.2411C211.693 13.7766 215.116 13.3531 218.406 14.0364C225.842 16.2554 232.275 20.9907 236.603 27.4313C241.679 34.4471 245.494 42.2932 247.878 50.6179C250.407 59.3788 251.874 68.4119 252.248 77.523C252.827 86.6539 252.119 95.8208 250.147 104.755C247.99 113.62 244.464 122.095 239.698 129.875C238.69 131.582 237.61 133.258 236.508 134.884C234.312 133.417 232.167 131.93 229.922 130.273" fill="#F9CB10"/>
</svg>
