<svg width="344" height="125" viewBox="0 0 344 125" fill="none" xmlns="http://www.w3.org/2000/svg">
<path d="M342.741 54.0244C343.675 50.2817 333.908 45.3387 320.844 43.511C307.78 41.6834 281.527 41.8661 281.024 45.7825C280.521 49.699 305.401 55.2563 318.1 57.2253C330.799 59.1943 341.821 57.8301 342.741 54.0244Z" fill="#119EEE"/>
<path d="M249.932 43.5484C250.29 40.5166 239.325 37.3995 225.4 37.1304C211.476 36.8613 184.233 39.8783 184.292 43.0208C184.352 46.1634 211.186 47.8321 224.809 48.2295C238.431 48.6269 249.651 46.6302 250.121 43.5092" fill="#119EEE"/>
<path d="M160.621 44.5742C160.542 42.2902 149.06 41.1205 135.035 42.5814C121.009 44.0422 93.836 49.9367 94.2563 52.2815C94.6765 54.6263 121.961 52.1264 135.711 50.9199C149.461 49.7134 160.7 46.8583 160.684 44.5612" fill="#119EEE"/>
<path d="M42.1336 65.913C55.7154 62.3094 66.572 58.8764 66.2586 57.3638C65.9451 55.8513 54.4662 56.9157 40.6323 60.5715C32.1341 62.8031 23.7598 65.4822 15.5444 68.5974C10.4542 70.0665 5.66941 72.4384 1.41828 75.6001C6.65925 75.2004 11.8272 74.1293 16.7954 72.4132L42.0837 65.9892" fill="#119EEE"/>
</svg>
