<svg width="55" height="45" viewBox="0 0 55 45" fill="none" xmlns="http://www.w3.org/2000/svg">
<g clip-path="url(#clip0_203_254)">
<path d="M3.32787 41.2795H4.32151C6.15892 41.2795 7.64844 39.796 7.64844 37.966L7.64844 6.59149C7.64844 4.76149 6.15892 3.27799 4.32151 3.27799H3.32787C1.49046 3.27799 0.00094223 4.76149 0.00094223 6.59149L0.00094223 37.966C0.00094223 39.796 1.49046 41.2795 3.32787 41.2795Z" fill="#231F20"/>
<path d="M55.0003 39.3656C55.0016 39.913 54.8944 40.4553 54.6848 40.9614C54.4752 41.4675 54.1673 41.9274 53.7788 42.3148C53.3904 42.7021 52.929 43.0093 52.4211 43.2186C51.9132 43.428 51.3688 43.5354 50.8191 43.5348C48.8974 43.5348 47.2757 42.181 46.7805 40.3274C46.2441 38.3474 45.2085 36.5368 43.7721 35.0674C42.3357 33.5979 40.5461 32.5184 38.5732 31.9313C36.6003 31.3441 34.5094 31.2688 32.4991 31.7125C30.4887 32.1561 28.6255 33.1041 27.0863 34.4663C26.2672 33.2222 25.2024 32.1572 23.9567 31.3363C22.711 30.5153 21.3105 29.9556 19.8405 29.6912C21.5259 28.2792 22.7924 26.4357 23.5034 24.3595C24.2143 22.2834 24.3428 20.0533 23.875 17.9098C23.4071 15.7663 22.3606 13.7906 20.8484 12.1958C19.3362 10.601 17.4156 9.44753 15.2936 8.8598C13.4457 8.34538 12.1094 6.72864 12.1094 4.80651C12.1138 4.16452 12.2667 3.53218 12.5564 2.95864C12.846 2.38509 13.2645 1.88578 13.7794 1.49952C14.2943 1.11325 14.8917 0.850432 15.5251 0.731481C16.1586 0.612529 16.811 0.64065 17.4318 0.813658C21.7697 1.99541 25.596 4.56742 28.3191 8.13207C31.0423 11.6967 32.5107 16.0555 32.4972 20.5346C32.4983 21.4638 32.4298 22.3918 32.2923 23.3108C33.2465 23.1806 34.2085 23.1151 35.1716 23.1149C39.6683 23.1294 44.0347 24.621 47.5939 27.3583C51.1531 30.0955 53.7062 33.9257 54.8576 38.2551C54.951 38.6179 54.9989 38.9909 55.0003 39.3656Z" fill="#231F20"/>
<path d="M26.1697 35.3777C24.4224 36.9138 23.1625 38.9239 22.5443 41.1621C22.0278 43.0156 20.4127 44.3433 18.4779 44.3351C17.5397 44.3345 16.6295 44.0172 15.8957 43.435C15.1619 42.8527 14.648 42.04 14.4377 41.1294C13.4928 40.9386 12.6435 40.4275 12.0345 39.6831C11.4255 38.9386 11.0944 38.007 11.0977 37.0467C11.0977 35.1311 12.4488 33.5144 14.3098 33.0261C16.0081 32.5658 17.584 31.739 18.9255 30.6042C20.3954 30.8677 21.7959 31.4269 23.0414 32.2476C24.2869 33.0684 25.3514 34.1334 26.1697 35.3777Z" fill="#F9CB10"/>
</g>
<defs>
<clipPath id="clip0_203_254">
<rect width="55" height="43.6765" fill="white" transform="translate(0 0.661865)"/>
</clipPath>
</defs>
</svg>
